<svg xmlns="http://www.w3.org/2000/svg" width="1200" height="630" viewBox="0 0 1200 630">
  <defs>
    <linearGradient id="mainGrad" x1="0%" y1="0%" x2="100%" y2="100%">
      <stop offset="0%" style="stop-color:#020617;stop-opacity:1" />
      <stop offset="100%" style="stop-color:#0F172A;stop-opacity:1" />
    </linearGradient>
    <linearGradient id="accentGrad" x1="0%" y1="0%" x2="100%" y2="100%">
      <stop offset="0%" style="stop-color:#3B82F6;stop-opacity:1" />
      <stop offset="50%" style="stop-color:#8B5CF6;stop-opacity:1" />
      <stop offset="100%" style="stop-color:#EC4899;stop-opacity:1" />
    </linearGradient>
  </defs>
  <rect width="1200" height="630" fill="url(#mainGrad)" />
  <circle cx="200" cy="150" r="300" fill="#3B82F6" fill-opacity="0.05" />
  <circle cx="1000" cy="500" r="300" fill="#EC4899" fill-opacity="0.05" />
  <g transform="translate(425, 80)">
    <rect width="350" height="350" rx="80" fill="url(#accentGrad)" />
    <path d="M130 75h60l60 60v110c0 16.5-13.5 30-30 30H130c-16.5 0-30-13.5-30-30V105c0-16.5 13.5-30 30-30z" fill="#FFFFFF" />
    <path d="M190 75v60h60" fill="#F1F5F9" />
    <path d="M140 200l35 35 60-60" fill="none" stroke="url(#accentGrad)" stroke-width="26" stroke-linecap="round" stroke-linejoin="round" />
  </g>
  <text x="600" y="520" font-family="Inter, sans-serif" font-size="72" font-weight="900" fill="#FFFFFF" text-anchor="middle" letter-spacing="-2">MD5 File Checksum</text>
  <text x="600" y="580" font-family="Inter, sans-serif" font-size="28" font-weight="500" fill="#94A3B8" text-anchor="middle" letter-spacing="4">SECURE • FAST • PRIVATE</text>
</svg>